<?xml version="1.0" encoding="utf-8"?>
<!-- Generator: Adobe Illustrator 22.1.0, SVG Export Plug-In . SVG Version: 6.00 Build 0)  -->
<svg version="1.1" id="Layer_1" xmlns="http://www.w3.org/2000/svg" xmlns:xlink="http://www.w3.org/1999/xlink" x="0px" y="0px"
	 viewBox="0 0 1024 768" style="enable-background:new 0 0 1024 768;" xml:space="preserve">
<style type="text/css">
	.st0{fill:#333333;}
	.st1{fill:#00AAA6;}
	.st2{fill:none;}
</style>
<g>
	<g>
		<g>
			<path class="st0" d="M252.2,433.7L150.1,616H17.9L353.8,36.2h153.4L844.4,616H708L602.2,433.7H252.2z M576.5,375.2l-97.8-166.8
				c-21.4-37.9-36.3-72.5-50.9-105.8h-3.4c-14.1,33.9-29.6,69.3-49,104.8l-97.3,167.9H576.5z"/>
		</g>
	</g>
</g>
<g>
	<g>
		<g>
			<path class="st1" d="M347.2,433.7L245.1,616H112.9L448.8,36.2h153.4L939.4,616H803L697.2,433.7H347.2z M671.5,375.2l-97.8-166.8
				c-21.4-37.9-36.3-72.5-50.9-105.8h-3.4c-14.1,33.9-29.6,69.3-49,104.8l-97.3,167.9H671.5z"/>
		</g>
	</g>
</g>
<rect x="391.4" y="160.8" class="st2" width="203.9" height="1.3"/>
</svg>
